<?xml version="1.0" encoding="UTF-8"?>
<svg width="40px" height="40px" viewBox="0 0 40 40" version="1.1" xmlns="http://www.w3.org/2000/svg" xmlns:xlink="http://www.w3.org/1999/xlink">
    <!-- Generator: Sketch 53.2 (72643) - https://sketchapp.com -->
    <title>Slice</title>
    <desc>Created with Sketch.</desc>
    <g id="Page-1" stroke="none" stroke-width="1" fill="none" fill-rule="evenodd">
        <g id="Vuesion-icon" fill="#F43B6C" fill-rule="nonzero">
            <path d="M24.4320167,13.30606 L24.4320167,13.30606 C25.5138549,13.3064115 26.3907702,14.1833269 26.3911215,15.2651651 L26.3982858,37.3229131 C26.3986369,38.403843 25.5226547,39.2803944 24.4417247,39.2807455 C24.4413009,39.2807456 24.440877,39.2807456 24.4404531,39.2807455 L24.4404531,39.2807455 C23.3586149,39.280394 22.4816996,38.4034786 22.4813482,37.3216404 L22.474184,15.2638925 C22.4738329,14.1829625 23.3498151,13.3064111 24.430745,13.30606 C24.4311689,13.3060599 24.4315928,13.3060599 24.4320167,13.30606 Z" id="Rectangle" transform="translate(24.436235, 26.293403) rotate(30.000000) translate(-24.436235, -26.293403) "></path>
            <path d="M35.4541283,1.88726452 L35.4541283,1.88726452 C36.5359665,1.88761603 37.4128818,2.76453143 37.4132332,3.84636964 L37.4156153,11.1803967 C37.4159664,12.2613266 36.5399841,13.137878 35.4590542,13.1382291 C35.4586303,13.1382292 35.4582065,13.1382292 35.4577826,13.1382291 L35.4577826,13.1382291 C34.3759444,13.1378776 33.4990291,12.2609622 33.4986777,11.179124 L33.4962957,3.84509696 C33.4959446,2.76416704 34.3719268,1.8876156 35.4528567,1.88726452 C35.4532806,1.88726438 35.4537045,1.88726438 35.4541283,1.88726452 Z" id="Rectangle" transform="translate(35.455955, 7.512747) rotate(30.000000) translate(-35.455955, -7.512747) "></path>
            <path d="M21.9314397,0.628365326 L21.9314397,0.628365326 C23.0132779,0.628716834 23.8901932,1.50563224 23.8905446,2.58747045 L23.8996773,30.7057221 C23.9000284,31.786652 23.0240461,32.6632034 21.9431162,32.6635545 C21.9426924,32.6635547 21.9422685,32.6635547 21.9418446,32.6635545 L21.9418446,32.6635545 C20.8600064,32.663203 19.9830911,31.7862876 19.9827397,30.7044494 L19.973607,2.58619777 C19.973256,1.50526785 20.8492382,0.628716407 21.9301681,0.628365326 C21.930592,0.628365188 21.9310158,0.628365188 21.9314397,0.628365326 Z" id="Rectangle" transform="translate(21.936642, 16.645960) rotate(30.000000) translate(-21.936642, -16.645960) "></path>
            <path d="M13.5866037,9.77829255 L13.5866037,9.77829255 C14.6684419,9.77864406 15.5453572,10.6555595 15.5457086,11.7373977 L15.5492343,22.5927189 C15.5495854,23.6736489 14.6736032,24.5502003 13.5926733,24.5505514 C13.5922494,24.5505515 13.5918255,24.5505515 13.5914017,24.5505514 L13.5914017,24.5505514 C12.5095635,24.5501999 11.6326482,23.6732845 11.6322968,22.5914463 L11.628771,11.736125 C11.6284199,10.6551951 12.5044022,9.77864364 13.5853321,9.77829255 C13.5857559,9.77829242 13.5861798,9.77829242 13.5866037,9.77829255 Z" id="Rectangle" transform="translate(13.589003, 17.164422) rotate(30.000000) translate(-13.589003, -17.164422) "></path>
            <path d="M9.93828397,1.42222425 L9.93828397,1.42222425 C11.0201222,1.42257575 11.8970375,2.29949116 11.8973889,3.38132937 L11.9014167,15.7825847 C11.9017678,16.8635146 11.0257856,17.7400661 9.94485567,17.7404171 C9.94443179,17.7404173 9.94400792,17.7404173 9.94358405,17.7404171 L9.94358405,17.7404171 C8.86174584,17.7400656 7.98483054,16.8631502 7.98447917,15.781312 L7.98045129,3.38005669 C7.98010021,2.29912677 8.85608243,1.42257533 9.93701235,1.42222425 C9.93743622,1.42222411 9.93786009,1.42222411 9.93828397,1.42222425 Z" id="Rectangle" transform="translate(9.940934, 9.581321) rotate(30.000000) translate(-9.940934, -9.581321) "></path>
            <path d="M3.84514654,1.92290395 L3.84514654,1.92290395 C4.92698475,1.92325546 5.80390005,2.80017086 5.80425143,3.88200908 L5.80571295,8.38182363 C5.80606403,9.46275355 4.93008181,10.339305 3.84915189,10.3396561 C3.84872802,10.3396562 3.84830414,10.3396562 3.84788027,10.3396561 L3.84788027,10.3396561 C2.76604206,10.3393046 1.88912676,9.46238916 1.88877539,8.38055095 L1.88731386,3.88073639 C1.88696278,2.79980647 2.76294501,1.92325503 3.84387493,1.92290395 C3.8442988,1.92290381 3.84472267,1.92290381 3.84514654,1.92290395 Z" id="Rectangle" transform="translate(3.846513, 6.131280) rotate(30.000000) translate(-3.846513, -6.131280) "></path>
        </g>
    </g>
</svg>